# xmcd CD database file
#
# Track frame offsets:
#	150
#	21572
#	39497
#	59467
#	76195
#	97417
#	115832
#	130575
#	146830
#	162495
#	177780
#	193910
#	207590
#	219140
#	233962
#	250385
#
# Disc length: 3502 seconds
#
# Revision: 1
# Processed by: cddbd v1.5.1PL2 Copyright (c) Steve Scherf et al.
# Submitted via: CDex 1.51
#
DISCID=f00dac10
DTITLE=Pfister Sisters - All's Well That's Boswell
DYEAR=2000
DGENRE=Jazz
TTITLE0=St. Louis Blues
TTITLE1=Heebie Jeebie
TTITLE2=When It's Sleeptime Down South
TTITLE3=Roll On, Mississippi, Roll On
TTITLE4=Close Farm-ony Medley
TTITLE5=Sentimental Gentleman From Georgia
TTITLE6=I Hate Myself
TTITLE7=It Don't Mean a Thing
TTITLE8=Don't Let Your Love Go Wrong
TTITLE9=Was That The Human Thing to Do
TTITLE10=Forty-Second Street
TTITLE11=Minnie the Moocher's Wedding Day
TTITLE12=Crazy People
TTITLE13=Shout, Sister, Shout
TTITLE14=We Just Couldn't Say Goodbye
TTITLE15=Fare Thee Well, Annabel
EXTD=YEAR: 2000
EXTT0=
EXTT1=
EXTT2=
EXTT3=
EXTT4=
EXTT5=
EXTT6=
EXTT7=
EXTT8=
EXTT9=
EXTT10=
EXTT11=
EXTT12=
EXTT13=
EXTT14=
EXTT15=
PLAYORDER=
